<svg id="carootes_logo" data-name="carootes logo" xmlns="http://www.w3.org/2000/svg" xmlns:xlink="http://www.w3.org/1999/xlink" width="128.1" height="86.789" viewBox="0 0 128.1 86.789">
  <defs>
    <linearGradient id="linear-gradient" x1="0.884" y1="0.016" x2="0.5" y2="1" gradientUnits="objectBoundingBox">
      <stop offset="0" stop-color="#a1ff15"/>
      <stop offset="1" stop-color="#794112"/>
    </linearGradient>
  </defs>
  <path id="carrot-solid" d="M50.031,21.036a24.183,24.183,0,0,0-24.841,5.316l8.752,7.217a1.922,1.922,0,0,1-.127,3.082,3.126,3.126,0,0,1-1.881.7,2.733,2.733,0,0,1-1.829-.577l-7.959-6.563L-.357,66.756a2.636,2.636,0,0,0-.111,2.686c.824,1.483,3.014,2.035,4.867,1.236l22.3-9.641L18.9,54.6a1.922,1.922,0,0,1,.127-3.082,3.037,3.037,0,0,1,3.71-.127l9.037,7.452,17.024-7.363a21.149,21.149,0,0,0,9.694-8.107c5.288-8.582,1.5-18.584-8.456-22.342ZM65.346,15.76C68.776,10.1,67.388,3.6,61.056-.664c-8.491,5.969-9.222,14.953-2.15,20.757l1.268,1.046c7.038,5.832,17.869,5.162,24.98-1.93-5.178-5.229-13.017-6.336-19.808-3.448Z" transform="translate(14.326 0.802) rotate(11)" fill="url(#linear-gradient)"/>
  <text id="BioFood" transform="translate(71.1 56.335)" fill="#b77844" font-size="14" font-family="OpenSans-Bold, Open Sans" font-weight="700"><tspan x="0" y="0">BioFood</tspan></text>
</svg>
